<?xml version="1.0" standalone="no"?>
<!DOCTYPE svg PUBLIC "-//W3C//DTD SVG 20010904//EN"
 "http://www.w3.org/TR/2001/REC-SVG-20010904/DTD/svg10.dtd">
<svg version="1.0" xmlns="http://www.w3.org/2000/svg"
 width="1200.000000pt" height="1200.000000pt" viewBox="0 0 1200.000000 1200.000000"
 preserveAspectRatio="xMidYMid meet">

<g transform="translate(0.000000,1200.000000) scale(0.100000,-0.100000)"
fill="#000000" stroke="none">
<path d="M6934 6978 c-77 -36 -211 -62 -282 -55 -29 3 -87 16 -128 28 -70 21
-76 21 -92 6 -10 -11 -13 -20 -7 -26 18 -16 108 -41 190 -53 71 -10 95 -9 171
5 93 18 211 68 221 94 11 29 -13 30 -73 1z"/>
<path d="M4870 6975 c-10 -12 -6 -18 22 -35 47 -29 159 -60 236 -66 117 -9
322 42 322 81 0 21 -38 19 -109 -5 -125 -42 -285 -34 -391 20 -47 24 -63 25
-80 5z"/>
<path d="M5790 5723 c-14 -7 -49 -15 -80 -18 -30 -3 -77 -14 -105 -25 -58 -22
-137 -20 -163 3 -14 13 -27 14 -72 5 -30 -5 -66 -16 -80 -23 -14 -8 -60 -30
-103 -50 -68 -31 -81 -42 -93 -73 -78 -194 -156 -269 -320 -307 -37 -9 -77
-23 -88 -33 -20 -16 -20 -16 -6 2 14 18 13 19 -20 13 -19 -4 -43 -17 -53 -30
-10 -12 -29 -34 -42 -49 -39 -44 -56 -86 -53 -131 2 -28 7 -41 16 -39 10 2 10
-3 -2 -20 -23 -32 -20 -48 9 -48 14 0 25 6 25 13 0 6 16 30 35 52 20 22 38 50
41 62 6 23 24 32 24 12 0 -6 17 3 37 20 20 17 38 29 39 28 7 -8 -22 -134 -32
-140 -9 -5 -11 -26 -7 -75 5 -61 3 -71 -21 -105 -14 -21 -26 -47 -26 -57 0
-11 -4 -20 -10 -20 -15 0 -59 -156 -54 -190 5 -30 -21 -100 -37 -100 -5 0 -8
-3 -7 -7 1 -5 -3 -17 -9 -28 -14 -25 -13 -125 1 -126 6 -1 17 -1 23 0 9 1 10
-5 4 -21 -6 -16 -20 -25 -47 -31 -21 -4 -45 -14 -53 -21 -9 -8 -25 -16 -36
-19 -16 -4 -15 -5 6 -6 15 0 32 -8 39 -16 11 -13 6 -15 -34 -15 -34 0 -46 4
-46 15 0 8 -9 15 -21 15 -11 0 -18 -4 -15 -9 3 -4 -6 -6 -19 -3 -28 5 -33 -11
-10 -34 8 -9 15 -11 15 -5 0 14 47 14 55 1 3 -5 19 -10 35 -10 16 0 31 -4 35
-10 3 -5 12 -7 20 -4 42 17 36 -136 -7 -183 -18 -19 -19 -30 -14 -77 5 -38 4
-56 -3 -56 -8 0 -7 -7 1 -20 15 -23 38 -26 56 -8 9 9 15 10 20 2 4 -6 69 -17
144 -24 112 -11 170 -11 326 0 125 9 238 10 333 5 79 -4 219 -9 310 -10 94 -1
181 -7 201 -14 25 -8 164 -13 455 -14 364 -2 418 -4 418 -17 0 -24 16 -30 87
-30 44 0 68 -4 71 -12 3 -10 40 -13 142 -13 101 0 139 3 142 13 3 6 15 12 27
13 19 1 19 2 -4 10 -19 7 -13 8 24 5 27 -2 43 0 36 4 -10 6 -8 9 6 13 10 2 -4
5 -32 6 -34 1 -56 7 -65 17 -11 14 -6 15 52 9 35 -3 83 -11 106 -17 66 -16 75
-9 72 64 -2 41 2 71 11 85 17 27 9 38 -18 24 -18 -9 -20 -6 -26 51 -3 33 -13
74 -21 91 -17 34 -13 47 13 40 11 -2 32 6 49 21 17 14 36 26 42 26 16 0 25 48
11 64 -6 8 -37 18 -68 21 -84 10 -88 12 -102 58 -16 55 -20 160 -6 169 7 5 6
8 -3 8 -11 0 -11 3 -1 15 6 8 9 19 5 24 -3 6 -8 27 -11 48 -2 21 -7 46 -10 56
-3 11 -7 29 -9 40 -2 12 -10 40 -19 62 -19 49 -20 77 -3 94 10 10 8 15 -7 27
-11 8 -27 14 -37 14 -9 0 -22 6 -28 14 -14 16 4 26 49 26 29 0 53 21 32 28
-23 7 -13 41 14 48 17 4 23 11 20 21 -3 8 -6 21 -6 29 0 8 -6 14 -14 14 -8 0
-18 5 -22 12 -5 7 0 9 14 6 16 -5 19 -2 15 11 -5 13 -2 12 17 -4 l23 -20 -17
32 c-19 39 -36 50 -36 26 -1 -17 -1 -17 -11 -1 -7 13 -4 28 11 59 12 22 19 43
16 47 -3 3 -1 11 4 17 6 7 7 26 4 43 -6 29 -8 30 -88 42 -127 20 -226 54 -276
97 -50 43 -109 131 -130 192 -9 28 -22 46 -37 52 -13 5 -34 16 -48 25 -14 9
-78 40 -142 70 l-117 54 -29 -28 c-25 -24 -35 -27 -95 -26 -47 1 -95 11 -162
33 -52 18 -99 35 -104 38 -18 12 -222 8 -246 -4z m1457 -575 c-3 -7 -5 -2 -5
12 0 14 2 19 5 13 2 -7 2 -19 0 -25z m-47 -118 c0 -5 -4 -10 -10 -10 -5 0 -10
5 -10 10 0 6 5 10 10 10 6 0 10 -4 10 -10z m-7 -167 c-7 -2 -19 -2 -25 0 -7 3
-2 5 12 5 14 0 19 -2 13 -5z m-156 -1180 c-20 -2 -52 -2 -70 0 -17 2 0 4 38 4
39 0 53 -2 32 -4z m-207 -23 c-8 -5 -28 -9 -45 -9 -29 1 -29 1 -5 9 14 4 34 8
45 9 16 1 17 -1 5 -9z"/>
<path d="M7510 4200 c-12 -8 -10 -10 8 -10 13 0 20 4 17 10 -7 12 -6 12 -25 0z"/>
<path d="M7463 3934 c-27 -70 -30 -89 -18 -118 11 -27 12 -25 25 47 14 82 10
117 -7 71z"/>
<path d="M4408 3832 c-19 -22 -32 -72 -18 -72 5 0 10 8 10 17 0 9 9 27 21 39
11 12 16 25 11 28 -5 3 -16 -2 -24 -12z"/>
<path d="M4677 3683 c-9 -9 -9 -33 1 -33 4 0 13 9 20 20 10 16 10 20 -1 20 -8
0 -17 -3 -20 -7z"/>
<path d="M8322 3650 c0 -19 2 -27 5 -17 2 9 2 25 0 35 -3 9 -5 1 -5 -18z"/>
<path d="M3512 3585 c0 -16 2 -22 5 -12 2 9 2 23 0 30 -3 6 -5 -1 -5 -18z"/>
<path d="M8333 3560 c0 -25 2 -35 4 -22 2 12 2 32 0 45 -2 12 -4 2 -4 -23z"/>
<path d="M6208 3523 c6 -2 18 -2 25 0 6 3 1 5 -13 5 -14 0 -19 -2 -12 -5z"/>
<path d="M3503 3485 c0 -22 2 -30 4 -17 2 12 2 30 0 40 -3 9 -5 -1 -4 -23z"/>
<path d="M4638 3504 c30 -21 28 -42 -5 -46 l-28 -3 33 -18 c33 -18 34 -18 68
8 19 14 34 30 34 34 0 21 -40 41 -81 41 -42 0 -43 0 -21 -16z"/>
<path d="M4530 3491 c-15 -29 -49 -46 -63 -32 -6 6 -18 11 -26 11 -13 -1 -13
-3 2 -14 14 -11 15 -15 5 -19 -7 -2 -4 -3 7 -1 11 2 45 7 75 11 67 8 87 23 59
46 -23 20 -33 22 -23 5 6 -10 4 -10 -8 0 -14 11 -18 10 -28 -7z"/>
<path d="M6038 3503 c7 -3 16 -2 19 1 4 3 -2 6 -13 5 -11 0 -14 -3 -6 -6z"/>
<path d="M7260 3505 c0 -3 7 -19 15 -34 10 -21 24 -30 52 -35 61 -10 68 -7 42
13 -30 23 -109 64 -109 56z"/>
<path d="M6088 3493 c7 -3 16 -2 19 1 4 3 -2 6 -13 5 -11 0 -14 -3 -6 -6z"/>
<path d="M5172 3475 c-16 -7 -21 -16 -18 -31 3 -11 -2 -31 -11 -44 -15 -22
-15 -24 7 -42 38 -30 63 -20 73 30 7 36 12 42 33 42 13 0 24 5 24 10 0 7 -13
8 -35 4 -41 -7 -77 2 -56 15 22 14 8 27 -17 16z"/>
<path d="M5883 3483 c9 -2 23 -2 30 0 6 3 -1 5 -18 5 -16 0 -22 -2 -12 -5z"/>
<path d="M6158 3483 c7 -3 16 -2 19 1 4 3 -2 6 -13 5 -11 0 -14 -3 -6 -6z"/>
<path d="M4920 3468 c-19 -7 -22 -11 -10 -18 8 -5 18 -6 23 -3 5 3 13 -1 18
-8 6 -10 11 -11 17 -3 4 6 16 14 26 17 10 4 16 10 13 14 -11 10 -60 11 -87 1z"/>
<path d="M5046 3471 c-14 -5 -16 -10 -7 -15 15 -9 41 -1 41 14 0 11 -7 12 -34
1z"/>
<path d="M6218 3473 c7 -3 16 -2 19 1 4 3 -2 6 -13 5 -11 0 -14 -3 -6 -6z"/>
<path d="M8342 3450 c0 -19 2 -27 5 -17 2 9 2 25 0 35 -3 9 -5 1 -5 -18z"/>
<path d="M6273 3463 c9 -2 23 -2 30 0 6 3 -1 5 -18 5 -16 0 -22 -2 -12 -5z"/>
<path d="M7230 3448 l-25 -23 40 -3 c22 -2 43 -8 46 -14 3 -5 19 -8 35 -6 26
3 24 5 -23 21 -37 13 -50 22 -46 33 7 20 1 18 -27 -8z"/>
<path d="M4743 3447 c-4 -8 -16 -17 -26 -20 -10 -4 -16 -11 -13 -15 7 -12 -68
-44 -86 -37 -17 7 -20 35 -4 35 6 0 6 4 -1 11 -13 13 -119 3 -129 -12 -4 -6
13 -7 45 -3 34 4 51 3 51 -4 0 -15 -49 -67 -63 -67 -7 -1 -20 -4 -29 -8 -10
-4 -25 -9 -33 -12 -8 -2 -15 -12 -15 -21 0 -15 2 -16 18 -2 12 11 35 15 74 14
47 -2 55 0 46 11 -8 11 -4 12 23 9 26 -2 35 -8 37 -25 3 -15 -2 -21 -16 -21
-11 0 -28 -3 -38 -7 -12 -4 -15 -3 -10 6 6 9 -1 11 -31 5 -21 -4 -39 -11 -41
-15 -2 -5 -15 -9 -28 -9 -13 0 -24 -4 -24 -10 0 -12 2 -12 34 0 25 9 31 4 27
-22 0 -5 11 -8 25 -8 14 0 23 4 19 9 -7 12 18 20 73 26 23 2 46 7 52 10 6 4
22 4 35 1 25 -6 25 -6 5 -26 -11 -11 -26 -20 -34 -20 -7 0 -19 -6 -25 -14 -9
-10 -7 -19 9 -37 20 -22 20 -23 11 -2 -14 28 -5 33 60 39 36 3 59 0 75 -11 13
-8 36 -15 51 -15 l28 0 -25 15 c-14 8 -43 23 -65 35 -40 20 -40 24 2 20 12 0
32 9 44 21 17 17 36 24 69 25 25 1 58 7 73 13 16 6 40 11 55 12 24 1 23 2 -7
9 -19 5 -45 4 -58 -1 -34 -13 -43 -11 -43 6 0 8 -4 15 -10 15 -5 0 -10 -4 -10
-10 0 -5 -8 -10 -17 -10 -16 1 -16 2 1 11 13 8 15 14 7 19 -7 3 13 5 44 2 45
-4 54 -2 50 10 -3 8 -22 14 -48 15 -46 1 -150 12 -183 18 -11 3 -21 11 -21 20
0 10 6 13 19 9 12 -3 18 0 18 10 0 19 -36 21 -47 3z"/>
<path d="M4845 3450 c-3 -5 -16 -10 -28 -10 -20 0 -20 -1 -4 -17 14 -15 22
-15 47 -6 17 6 30 7 30 2 0 -5 9 -9 20 -9 11 0 20 5 20 10 0 6 -6 10 -14 10
-8 0 -16 7 -20 15 -6 17 -42 20 -51 5z"/>
<path d="M6972 3444 c15 -8 49 -17 75 -19 l48 -6 -45 20 c-25 11 -58 20 -75
20 l-30 0 27 -15z"/>
<path d="M5090 3440 c0 -5 -6 -10 -12 -10 -14 -1 -53 -49 -45 -56 3 -3 17 -6
32 -8 16 -2 34 -10 40 -20 7 -9 18 -16 24 -16 6 0 3 10 -9 22 -24 26 -25 36
-4 59 9 10 13 23 9 28 -8 14 -35 14 -35 1z"/>
<path d="M5338 3423 c7 -3 16 -2 19 1 4 3 -2 6 -13 5 -11 0 -14 -3 -6 -6z"/>
<path d="M6610 3426 c0 -2 9 -6 20 -9 11 -3 18 -1 14 4 -5 9 -34 13 -34 5z"/>
<path d="M4440 3400 c-9 -6 -10 -10 -3 -10 6 0 15 5 18 10 8 12 4 12 -15 0z"/>
<path d="M5798 3403 c12 -2 30 -2 40 0 9 3 -1 5 -23 4 -22 0 -30 -2 -17 -4z"/>
<path d="M6718 3403 c6 -2 18 -2 25 0 6 3 1 5 -13 5 -14 0 -19 -2 -12 -5z"/>
<path d="M7130 3400 c0 -5 7 -10 16 -10 8 0 12 5 9 10 -3 6 -10 10 -16 10 -5
0 -9 -4 -9 -10z"/>
<path d="M6765 3384 c-11 -9 -26 -9 -48 -3 -44 12 -84 11 -93 -3 -12 -19 28
-38 82 -38 56 0 67 -10 53 -47 -5 -14 -3 -33 7 -52 17 -34 29 -39 38 -16 8 22
35 18 33 -5 -1 -13 -8 -20 -22 -20 -11 0 -27 -5 -35 -10 -21 -14 95 -13 121 1
17 8 25 4 57 -31 49 -55 89 -70 197 -76 57 -4 110 -13 144 -27 l54 -21 31 35
c24 27 27 35 14 37 -9 2 -31 -3 -50 -11 -27 -11 -56 -12 -147 -5 -138 11 -198
32 -226 75 -12 18 -32 35 -48 38 -85 20 54 13 227 -11 31 -4 37 -3 26 5 -8 6
-31 11 -50 12 -24 1 -28 3 -12 6 12 2 20 9 17 14 -8 13 -45 11 -45 -2 0 -7
-16 -8 -47 -3 -70 9 -77 24 -12 25 47 2 49 3 19 8 -19 4 -51 14 -70 23 -19 9
-61 20 -92 23 -103 11 -61 23 61 18 151 -7 172 10 33 26 -164 20 -179 23 -157
31 17 6 15 8 -11 12 -18 2 -39 -1 -49 -8z"/>
<path d="M4513 3375 c0 -11 4 -12 14 -4 7 6 13 13 13 15 0 2 -6 4 -13 4 -8 0
-14 -7 -14 -15z"/>
<path d="M3493 3325 c0 -33 2 -45 4 -27 2 18 2 45 0 60 -2 15 -4 0 -4 -33z"/>
<path d="M4475 3370 c-3 -6 1 -7 9 -4 18 7 21 14 7 14 -6 0 -13 -4 -16 -10z"/>
<path d="M6911 3376 c11 -10 89 -15 89 -6 0 5 -21 10 -47 10 -25 0 -44 -2 -42
-4z"/>
<path d="M8354 3285 c0 -49 1 -71 3 -48 2 23 2 64 0 90 -2 26 -3 8 -3 -42z"/>
<path d="M5165 3285 c54 -20 71 -20 51 0 -8 8 -32 15 -53 15 l-38 -1 40 -14z"/>
<path d="M5013 3273 c-24 -8 -43 -19 -43 -24 0 -11 -8 -13 80 16 61 20 69 24
40 24 -19 0 -54 -7 -77 -16z"/>
<path d="M7235 3281 c6 -6 26 -13 45 -16 42 -7 21 8 -25 19 -21 5 -27 4 -20
-3z"/>
<path d="M6328 3263 c7 -3 16 -2 19 1 4 3 -2 6 -13 5 -11 0 -14 -3 -6 -6z"/>
<path d="M6473 3233 c9 -2 23 -2 30 0 6 3 -1 5 -18 5 -16 0 -22 -2 -12 -5z"/>
<path d="M5145 3179 c-19 -12 -41 -18 -60 -16 -26 4 -125 -15 -228 -44 -24 -6
-56 -28 -85 -59 -55 -56 -102 -82 -140 -78 -39 4 -28 23 13 22 39 -1 38 10 -1
20 -20 5 -36 0 -63 -18 -21 -15 -44 -26 -52 -26 -10 -1 -8 -5 6 -16 15 -12 33
-14 69 -9 65 8 100 27 168 91 31 30 68 58 83 64 34 13 132 13 140 0 3 -5 25
-10 48 -10 36 1 39 2 23 12 -18 10 -11 15 60 49 43 20 72 37 64 37 -8 0 -28
-8 -45 -19z"/>
<path d="M6708 3193 c6 -2 10 -9 6 -14 -9 -15 13 -10 26 6 11 13 8 15 -16 14
-16 0 -23 -3 -16 -6z"/>
<path d="M5245 3180 c3 -5 8 -10 11 -10 2 0 4 5 4 10 0 6 -5 10 -11 10 -5 0
-7 -4 -4 -10z"/>
<path d="M7376 3156 c6 -16 44 -29 44 -15 0 8 -32 29 -44 29 -3 0 -3 -6 0 -14z"/>
<path d="M5195 3150 c-3 -5 1 -10 9 -10 8 0 18 5 21 10 3 6 -1 10 -9 10 -8 0
-18 -4 -21 -10z"/>
<path d="M6793 3153 c9 -2 23 -2 30 0 6 3 -1 5 -18 5 -16 0 -22 -2 -12 -5z"/>
<path d="M4737 3144 c-4 -4 -7 -17 -7 -29 0 -12 -9 -34 -21 -49 -17 -22 -24
-24 -42 -15 -22 10 -22 10 -2 -6 11 -8 26 -14 35 -13 19 4 64 98 52 110 -4 4
-11 5 -15 2z"/>
<path d="M5120 3123 c-14 -7 -18 -13 -10 -13 17 0 47 17 40 23 -3 2 -16 -2
-30 -10z"/>
<path d="M5493 3133 c9 -2 25 -2 35 0 9 3 1 5 -18 5 -19 0 -27 -2 -17 -5z"/>
<path d="M5598 3123 c7 -3 16 -2 19 1 4 3 -2 6 -13 5 -11 0 -14 -3 -6 -6z"/>
<path d="M4500 3110 c-9 -6 -10 -10 -3 -10 6 0 15 5 18 10 8 12 4 12 -15 0z"/>
<path d="M6619 3105 c-1 -3 -2 -11 -3 -17 -1 -7 -10 -12 -20 -10 -17 3 -17 3
0 -16 11 -11 29 -23 42 -26 25 -8 30 -34 7 -42 -21 -8 -19 -27 5 -42 28 -17
25 -32 -7 -32 -54 0 -13 -10 118 -30 149 -22 195 -25 204 -11 3 5 -3 16 -13
23 -10 7 -21 20 -24 30 -4 9 -21 19 -39 23 -19 4 -50 26 -78 56 -33 34 -65 56
-111 74 -65 25 -79 29 -81 20z"/>
<path d="M4843 3085 c-16 -11 -23 -26 -23 -49 0 -24 -6 -36 -22 -44 -26 -12
-4 -15 27 -3 15 6 20 17 20 46 0 34 3 39 30 47 35 9 55 4 55 -14 0 -9 -3 -9
-10 2 -14 22 -23 5 -10 -19 15 -30 88 -28 160 4 55 25 55 25 15 19 -22 -3 -55
-10 -74 -15 -39 -10 -53 -4 -49 19 4 24 -88 29 -119 7z"/>
<path d="M5868 3093 c7 -3 16 -2 19 1 4 3 -2 6 -13 5 -11 0 -14 -3 -6 -6z"/>
<path d="M4576 3061 c-3 -4 6 -6 19 -3 14 2 25 6 25 8 0 8 -39 4 -44 -5z"/>
<path d="M5908 3053 c7 -3 16 -2 19 1 4 3 -2 6 -13 5 -11 0 -14 -3 -6 -6z"/>
<path d="M8353 3010 c0 -25 2 -35 4 -22 2 12 2 32 0 45 -2 12 -4 2 -4 -23z"/>
<path d="M3493 2995 c0 -27 2 -38 4 -22 2 15 2 37 0 50 -2 12 -4 0 -4 -28z"/>
<path d="M4516 3025 c-11 -8 -15 -15 -9 -15 6 0 16 7 23 15 16 19 11 19 -14 0z"/>
<path d="M6495 2980 c3 -5 14 -10 23 -10 15 0 15 2 2 10 -20 13 -33 13 -25 0z"/>
<path d="M4710 2963 c-8 -3 -26 -10 -40 -15 -23 -9 -24 -10 -7 -20 10 -5 28
-8 39 -5 11 3 26 3 34 0 17 -6 19 -23 3 -23 -6 0 -19 -10 -30 -22 -23 -29 -25
-97 -3 -186 23 -95 42 -138 56 -124 8 8 7 20 -4 44 -9 18 -19 44 -23 58 -4 14
-12 30 -17 37 -5 7 -12 40 -15 73 -5 54 -3 63 17 85 13 13 39 30 58 36 34 11
35 12 16 26 -13 10 -35 13 -66 10 -27 -2 -48 -2 -48 -1 0 2 15 10 33 18 30 14
28 21 -3 9z"/>
<path d="M4615 2930 c-19 -8 -19 -9 3 -9 12 -1 22 4 22 9 0 6 -1 10 -2 9 -2 0
-12 -4 -23 -9z"/>
<path d="M4870 2921 c0 -6 5 -13 10 -16 6 -3 10 1 10 9 0 9 -4 16 -10 16 -5 0
-10 -4 -10 -9z"/>
<path d="M6574 2864 c-1 -13 2 -24 8 -24 5 0 7 4 3 9 -3 5 -1 12 4 15 11 7 23
-22 15 -35 -3 -5 2 -12 11 -15 13 -5 14 -9 4 -15 -10 -6 -5 -11 14 -18 16 -6
34 -11 42 -11 19 0 75 -49 75 -66 0 -20 40 -17 78 6 39 24 44 62 10 84 -13 7
-67 23 -120 35 -54 13 -98 26 -98 30 0 4 -10 12 -22 18 -20 9 -23 7 -24 -13z"/>
<path d="M3502 2860 c0 -14 2 -19 5 -12 2 6 2 18 0 25 -3 6 -5 1 -5 -13z"/>
<path d="M8342 2860 c0 -14 2 -19 5 -12 2 6 2 18 0 25 -3 6 -5 1 -5 -13z"/>
<path d="M6948 2783 c20 -11 32 -24 32 -37 0 -17 2 -18 10 -6 15 23 13 26 -24
44 -44 21 -61 20 -18 -1z"/>
<path d="M5024 2781 c4 -5 0 -12 -6 -14 -8 -3 -6 -6 5 -6 9 -1 17 6 17 14 0 8
-5 15 -11 15 -5 0 -8 -4 -5 -9z"/>
<path d="M5040 2740 c0 -8 5 -22 10 -30 9 -13 10 -13 10 0 0 8 -5 22 -10 30
-9 13 -10 13 -10 0z"/>
<path d="M6416 2707 c6 -15 -48 -37 -97 -38 l-34 -1 30 -8 c77 -22 117 -30
200 -40 50 -6 104 -12 120 -15 17 -2 24 -1 17 2 -6 2 -10 9 -6 14 5 9 -28 13
-106 10 -36 -1 -41 1 -25 9 16 8 13 9 -13 4 -18 -3 -38 -1 -45 4 -7 5 -21 12
-32 15 -19 5 -19 5 3 12 25 8 27 16 10 33 -16 16 -29 15 -22 -1z"/>
<path d="M5076 2650 c7 -45 23 -88 24 -62 0 7 5 10 11 6 15 -9 2 30 -23 70
l-19 31 7 -45z"/>
<path d="M7045 2675 c-29 -13 -28 -13 32 -12 62 2 72 11 23 21 -14 3 -38 -1
-55 -9z"/>
<path d="M3521 2654 c0 -11 3 -14 6 -6 3 7 2 16 -1 19 -3 4 -6 -2 -5 -13z"/>
<path d="M8321 2654 c0 -11 3 -14 6 -6 3 7 2 16 -1 19 -3 4 -6 -2 -5 -13z"/>
<path d="M6946 2625 c10 -8 28 -14 39 -14 18 0 17 1 -5 14 -34 20 -60 20 -34
0z"/>
<path d="M3531 2604 c0 -11 3 -14 6 -6 3 7 2 16 -1 19 -3 4 -6 -2 -5 -13z"/>
<path d="M6718 2601 c12 -11 22 -24 22 -29 0 -14 25 -22 66 -22 35 0 44 16 22
38 -16 16 15 17 44 1 11 -6 22 -8 25 -6 9 10 -56 37 -87 37 -17 0 -33 -6 -36
-14 -6 -15 -44 -10 -44 5 0 5 -8 9 -17 9 -15 -1 -15 -3 5 -19z"/>
<path d="M6674 2592 c3 -6 0 -13 -6 -16 -7 -3 -4 -5 6 -3 21 2 25 19 5 26 -6
2 -9 -1 -5 -7z"/>
<path d="M4576 2566 c4 -10 -2 -15 -23 -18 -20 -2 -29 -9 -31 -25 -6 -38 120
-255 158 -273 8 -4 25 -12 37 -18 32 -17 120 -15 126 2 12 31 -11 93 -50 134
-7 7 -13 22 -13 33 0 14 7 19 28 19 52 0 73 -11 66 -33 -5 -17 -3 -19 12 -12
11 4 37 11 59 14 l40 7 -95 48 c-52 27 -105 55 -117 63 -13 9 -23 13 -23 10 0
-3 22 -20 50 -38 27 -18 48 -34 46 -36 -2 -3 -30 0 -62 6 -47 9 -61 8 -72 -3
-12 -11 -11 -18 3 -45 9 -18 13 -41 10 -53 -7 -19 -10 -17 -47 18 -57 56 -111
132 -105 148 3 8 18 16 34 18 l28 3 -32 23 c-22 16 -31 18 -27 8z"/>
<path d="M6615 2560 c-3 -5 1 -10 9 -10 8 0 18 5 21 10 3 6 -1 10 -9 10 -8 0
-18 -4 -21 -10z"/>
<path d="M7218 2558 c20 -20 14 -46 -10 -51 -14 -3 -9 -5 15 -6 20 0 37 4 37
9 0 17 -31 60 -43 60 -7 0 -7 -4 1 -12z"/>
<path d="M6954 2531 c19 -21 19 -21 -13 -21 -18 0 -64 5 -102 11 -39 6 -73 9
-75 6 -8 -7 216 -46 291 -50 l70 -4 -55 17 c-30 10 -46 19 -35 20 19 1 -7 14
-75 35 -25 8 -25 8 -6 -14z"/>
<path d="M7058 2533 c7 -3 16 -2 19 1 4 3 -2 6 -13 5 -11 0 -14 -3 -6 -6z"/>
<path d="M7098 2523 c7 -3 16 -2 19 1 4 3 -2 6 -13 5 -11 0 -14 -3 -6 -6z"/>
<path d="M5135 2510 c-8 -13 3 -50 15 -50 12 0 20 28 14 45 -7 17 -20 20 -29
5z"/>
<path d="M7148 2513 c6 -2 18 -2 25 0 6 3 1 5 -13 5 -14 0 -19 -2 -12 -5z"/>
<path d="M7268 2453 c6 -2 18 -2 25 0 6 3 1 5 -13 5 -14 0 -19 -2 -12 -5z"/>
<path d="M7323 2443 c9 -2 23 -2 30 0 6 3 -1 5 -18 5 -16 0 -22 -2 -12 -5z"/>
<path d="M5138 2382 c-2 -18 -1 -35 4 -38 14 -9 21 25 11 49 -9 21 -10 20 -15
-11z"/>
<path d="M5144 2256 c5 -19 3 -26 -9 -26 -18 0 -20 -17 -3 -22 6 -2 -7 -12
-29 -21 -23 -9 -49 -26 -57 -39 -16 -22 -22 -23 -134 -22 -101 0 -110 -1 -62
-8 30 -5 89 -8 130 -5 66 3 79 7 102 30 28 28 92 41 69 14 -14 -17 -4 -27 25
-27 12 0 24 -6 27 -12 4 -10 7 -10 18 0 17 16 29 15 29 -2 0 -9 7 -12 19 -9
11 3 21 -2 24 -11 5 -11 -3 -18 -26 -25 -36 -10 -30 -13 56 -31 32 -6 57 -14
55 -16 -3 -2 -36 3 -74 11 -144 30 -286 46 -341 39 -93 -11 -77 -15 276 -54
46 -5 86 -12 90 -15 12 -12 -25 -23 -99 -30 -93 -8 -118 -20 -63 -29 58 -10
136 -37 152 -51 11 -11 11 -18 -2 -43 -13 -27 -13 -31 0 -36 12 -5 13 -9 3
-21 -7 -8 -11 -15 -9 -15 2 -1 63 -2 134 -4 254 -6 383 -22 331 -42 -9 -3 -16
-15 -16 -25 0 -15 7 -19 38 -19 78 -1 5 -18 -97 -22 -89 -4 -102 -3 -86 8 11
8 13 14 6 14 -7 0 -19 7 -27 15 -18 17 -73 20 -118 5 -17 -5 -47 -12 -67 -15
-19 -3 -43 -11 -53 -18 -16 -11 -14 -17 16 -77 18 -36 42 -69 53 -75 34 -16
92 -88 98 -119 3 -17 1 -41 -4 -54 -9 -24 -9 -25 28 -18 21 3 61 6 88 7 44 0
47 1 25 11 -35 14 -7 23 31 9 27 -9 30 -9 25 5 -5 12 -2 15 10 10 23 -9 64 4
64 20 0 19 -38 37 -64 30 -11 -3 -28 -1 -36 4 -12 8 -10 10 8 10 24 0 28 10
11 27 -17 17 5 25 45 17 20 -3 40 -12 47 -20 6 -8 21 -14 32 -14 20 0 20 0 1
-21 -15 -17 -16 -23 -5 -41 11 -17 10 -22 -1 -29 -7 -5 -20 -9 -28 -9 -8 0
-23 -7 -33 -14 -15 -12 -15 -15 -2 -26 21 -17 19 -30 -5 -30 -13 0 -20 7 -20
20 0 27 -27 26 -50 -2 -16 -20 -21 -21 -40 -10 -20 12 -21 11 -15 -7 4 -15 -2
-24 -24 -37 -16 -10 -28 -21 -25 -26 8 -13 -25 -21 -39 -10 -6 5 -54 13 -105
17 -87 6 -185 30 -240 57 -17 9 -25 9 -35 -1 -9 -9 -9 -14 2 -20 9 -6 2 -10
-22 -15 -32 -6 -124 9 -182 30 -14 5 -17 4 -10 -4 13 -13 153 -50 265 -68 222
-37 1084 -43 1345 -9 117 15 290 54 339 76 14 7 22 17 19 25 -6 17 9 18 24 3
8 -8 16 -8 30 1 17 11 17 11 0 6 -10 -3 -15 -2 -12 3 3 6 18 9 33 9 15 -1 43
9 62 21 33 20 34 21 10 21 -24 1 -24 1 -6 15 23 18 56 20 56 4 0 -8 5 -7 16 2
14 12 14 14 -2 26 -10 7 -15 16 -11 19 3 4 13 -1 23 -10 15 -15 17 -15 34 4 9
11 22 20 29 20 6 0 11 3 11 8 0 4 14 16 30 27 17 11 28 25 26 32 -3 7 1 10 8
7 7 -2 23 5 37 17 16 14 20 23 12 26 -7 3 -13 10 -13 18 0 7 -20 15 -51 19
-30 4 -65 17 -83 30 -17 13 -46 31 -63 40 -18 9 -33 23 -33 30 0 10 -17 16
-52 20 -75 8 -100 12 -125 20 -34 11 -28 -4 20 -47 23 -22 33 -36 22 -32 -11
4 -33 11 -50 15 -16 5 -109 29 -205 55 -96 26 -218 58 -270 72 -99 27 -198 51
-240 59 -14 3 13 -11 60 -30 46 -20 87 -36 91 -36 7 0 109 -66 119 -77 12 -13
-52 12 -139 53 -51 25 -149 64 -217 86 -73 24 -124 46 -124 54 0 23 -64 51
-188 83 -68 17 -132 31 -143 31 -10 0 -19 4 -19 9 0 14 39 20 73 10 17 -5 39
-9 47 -9 27 1 -10 16 -85 35 -38 10 -117 32 -175 50 -74 23 -136 35 -207 40
-57 4 -103 11 -103 15 0 9 87 30 124 30 13 0 29 -7 36 -15 7 -8 19 -15 26 -15
21 0 -5 38 -30 46 -11 4 -28 16 -38 28 -14 18 -17 18 -18 4 0 -9 6 -18 13 -21
23 -8 2 -14 -68 -20 l-71 -7 4 34 c2 20 -1 37 -9 41 -9 6 -10 1 -5 -19z m486
-200 c0 -2 -9 -6 -20 -9 -11 -3 -20 -1 -20 4 0 5 9 9 20 9 11 0 20 -2 20 -4z
m-50 -16 c0 -5 -7 -10 -15 -10 -8 0 -15 5 -15 10 0 6 7 10 15 10 8 0 15 -4 15
-10z m-66 -51 c13 -12 5 -18 -35 -25 -28 -4 -31 -3 -16 6 18 11 18 12 0 27
-17 13 -16 14 12 8 17 -4 34 -11 39 -16z m76 -9 c0 -5 -2 -10 -4 -10 -3 0 -8
5 -11 10 -3 6 -1 10 4 10 6 0 11 -4 11 -10z m-220 -19 c0 -5 -9 -11 -20 -14
-11 -3 -20 -1 -20 3 0 5 8 11 18 13 9 3 18 5 20 6 1 0 2 -3 2 -8z m54 -6 c4
-10 -1 -15 -14 -15 -13 0 -18 5 -14 15 4 8 10 15 14 15 4 0 10 -7 14 -15z
m-137 -1 c-3 -3 -12 -4 -19 -1 -8 3 -5 6 6 6 11 1 17 -2 13 -5z m288 -38 c97
-19 183 -51 230 -85 22 -16 58 -36 79 -45 59 -25 37 -29 -40 -8 -94 26 -139
46 -170 75 -15 14 -59 34 -103 47 -80 22 -140 46 -91 35 14 -3 57 -12 95 -19z
m374 0 c21 -12 22 -14 6 -20 -10 -4 -23 -2 -29 4 -5 5 -23 10 -38 10 -15 0
-28 5 -28 10 0 14 61 12 89 -4z m80 -191 c88 -36 115 -52 69 -41 -40 9 -35 1
17 -30 51 -29 54 -34 24 -34 -11 0 -17 5 -14 10 3 6 -1 10 -9 10 -9 0 -16 -4
-16 -8 0 -4 -22 -16 -48 -25 -41 -15 -56 -16 -103 -6 -50 11 -52 12 -29 22 14
5 59 13 100 16 l75 6 -47 23 c-26 12 -51 22 -57 22 -5 0 -13 5 -17 11 -5 8 3
10 25 7 17 -2 31 -3 31 -1 0 2 -24 15 -52 28 -81 37 -43 29 51 -10z m-386
-112 c-7 -2 -21 -2 -30 0 -10 3 -4 5 12 5 17 0 24 -2 18 -5z m35 -10 c-10 -2
-18 -9 -18 -15 0 -6 -3 -9 -6 -5 -10 10 6 27 24 26 15 -1 15 -2 0 -6z m319
-40 c11 -3 36 -18 55 -34 25 -21 29 -28 15 -29 -10 0 -20 6 -23 14 -3 8 -28
24 -55 35 -27 12 -49 24 -49 27 0 4 8 3 18 -1 9 -4 27 -10 39 -12z m-22 -23
c3 -5 2 -10 -4 -10 -5 0 -13 5 -16 10 -3 6 -2 10 4 10 5 0 13 -4 16 -10z m-30
-50 c3 -5 -1 -10 -9 -10 -8 0 -18 5 -21 10 -3 6 1 10 9 10 8 0 18 -4 21 -10z
m289 -69 c15 -17 15 -19 1 -25 -9 -3 -31 2 -48 11 -29 15 -30 17 -12 24 31 12
41 10 59 -10z m-149 -77 c0 -26 -4 -29 -33 -32 -31 -3 -33 -4 -15 -17 16 -13
13 -14 -32 -14 -49 1 -49 1 -21 13 31 14 20 32 -12 22 -10 -4 -27 1 -38 10
-18 15 -18 15 6 10 27 -6 93 13 112 32 19 19 33 8 33 -24z m190 26 c3 -5 2
-10 -4 -10 -5 0 -13 5 -16 10 -3 6 -2 10 4 10 5 0 13 -4 16 -10z m207 -22 c-9
-9 -15 -9 -24 0 -9 9 -7 12 12 12 19 0 21 -3 12 -12z m-346 -55 c-3 -3 -12 -1
-20 6 -11 9 -15 9 -19 -1 -2 -7 -8 -9 -13 -5 -14 14 18 27 39 15 10 -5 16 -12
13 -15z"/>
<path d="M7710 2143 c-13 -32 -27 -63 -32 -69 -4 -6 -5 -14 -1 -18 8 -8 55 88
59 122 4 35 -2 27 -26 -35z"/>
<path d="M4648 2093 c-34 -5 -37 -23 -5 -23 12 0 30 -12 40 -26 l19 -25 -39 5
c-37 6 -34 3 17 -16 l25 -9 -25 -19 c-30 -24 -20 -26 21 -5 16 9 27 20 24 25
-4 6 3 10 14 10 34 0 24 16 -19 33 -48 18 -52 37 -9 37 17 0 28 4 24 10 -6 10
-35 11 -87 3z"/>
<path d="M5108 2083 c6 -2 18 -2 25 0 6 3 1 5 -13 5 -14 0 -19 -2 -12 -5z"/>
<path d="M5886 2016 c3 -8 12 -17 20 -20 11 -4 12 -2 1 14 -14 23 -29 27 -21
6z"/>
<path d="M4950 2010 c0 -5 5 -10 11 -10 5 0 7 5 4 10 -3 6 -8 10 -11 10 -2 0
-4 -4 -4 -10z"/>
<path d="M5786 2011 c11 -10 74 -32 74 -26 0 5 -68 35 -78 35 -3 0 -2 -4 4 -9z"/>
<path d="M6100 1899 c0 -5 5 -7 10 -4 6 3 10 8 10 11 0 2 -4 4 -10 4 -5 0 -10
-5 -10 -11z"/>
<path d="M7530 1844 c-28 -36 -74 -90 -101 -120 -42 -46 -54 -74 -33 -74 3 0
3 4 0 9 -7 11 72 84 99 92 13 3 20 13 19 27 0 12 2 22 5 22 4 0 17 18 31 40
14 22 30 38 37 35 7 -2 13 2 13 10 0 33 -22 21 -70 -41z"/>
<path d="M7215 1877 c6 -24 4 -26 -39 -32 -28 -5 -64 -3 -90 5 -46 13 -102 11
-99 -4 4 -22 177 -61 316 -72 l87 -7 0 37 c0 34 2 36 33 37 19 1 7 5 -31 11
-35 4 -82 15 -105 24 -80 29 -79 29 -72 1z"/>
<path d="M3790 1821 c0 -6 4 -13 10 -16 6 -3 7 1 4 9 -7 18 -14 21 -14 7z"/>
<path d="M8055 1819 c-4 -6 -5 -12 -2 -15 2 -3 7 2 10 11 7 17 1 20 -8 4z"/>
<path d="M7360 1725 c0 -7 -8 -16 -17 -18 -14 -4 -15 -5 -2 -6 8 0 23 5 33 12
17 12 17 14 2 20 -10 4 -16 1 -16 -8z"/>
<path d="M7919 1603 c-13 -16 -12 -17 4 -4 16 13 21 21 13 21 -2 0 -10 -8 -17
-17z"/>
<path d="M3930 1596 c0 -2 8 -10 18 -17 15 -13 16 -12 3 4 -13 16 -21 21 -21
13z"/>
<path d="M3960 1556 c0 -2 8 -10 18 -17 15 -13 16 -12 3 4 -13 16 -21 21 -21
13z"/>
<path d="M7797 1448 c-54 -64 -64 -78 -26 -38 33 36 75 82 91 103 56 70 23 37
-65 -65z"/>
<path d="M4020 1485 c13 -14 26 -25 28 -25 3 0 -5 11 -18 25 -13 14 -26 25
-28 25 -3 0 5 -11 18 -25z"/>
<path d="M4172 1327 c142 -140 328 -264 548 -363 67 -31 139 -58 159 -60 30
-4 26 -1 -19 14 -30 11 -99 40 -154 66 -54 26 -109 51 -122 56 -76 29 -286
178 -411 292 l-78 70 77 -75z"/>
<path d="M5223 1343 c-7 -3 -13 -9 -13 -14 0 -4 6 -6 14 -3 16 6 96 -43 96
-58 0 -6 11 -7 26 -4 17 5 23 3 19 -4 -4 -6 8 -11 32 -12 56 -2 72 1 107 17
17 8 49 15 71 17 28 2 40 8 40 18 0 12 -15 15 -70 16 -38 1 -78 -2 -87 -7 -10
-6 -19 -5 -23 1 -11 18 -87 33 -110 22 -13 -6 -26 -7 -31 -3 -12 11 -56 20
-71 14z"/>
<path d="M7617 1271 c-107 -93 -127 -116 -37 -44 67 54 131 114 119 112 -2 0
-39 -31 -82 -68z"/>
<path d="M7463 1147 c-31 -26 -165 -111 -230 -147 -24 -13 -41 -26 -38 -28 6
-6 232 132 275 168 19 16 32 30 28 30 -3 0 -19 -10 -35 -23z"/>
<path d="M7120 940 c-30 -16 -49 -30 -42 -30 17 0 89 37 97 50 8 13 9 13 -55
-20z"/>
<path d="M6778 903 c34 -2 90 -2 125 0 34 2 6 3 -63 3 -69 0 -97 -1 -62 -3z"/>
<path d="M6403 893 c15 -2 39 -2 55 0 15 2 2 4 -28 4 -30 0 -43 -2 -27 -4z"/>
</g>
</svg>
