<?xml version="1.0" encoding="utf-8"?>
<!-- Generator: Adobe Illustrator 27.3.1, SVG Export Plug-In . SVG Version: 6.00 Build 0)  -->
<svg version="1.1" id="logo" xmlns="http://www.w3.org/2000/svg" xmlns:xlink="http://www.w3.org/1999/xlink" x="0px" y="0px"
	 viewBox="0 0 340.88 274.06" style="enable-background:new 0 0 340.88 274.06;" xml:space="preserve">
<style type="text/css">
	.st0{fill:#010202;}
	.st1{fill:none;stroke:#010202;stroke-width:6;stroke-miterlimit:10;}
	.st2{fill:#FFFFFF;stroke:#FFFFFF;stroke-width:1;stroke-miterlimit:10;}
	.st3{fill:#FDFDFD;}
	.st4{fill:#FFFFFF;}
</style>
<g>
	<g id="box">
		<polygon class="st0" points="329.18,56.46 329.18,259.16 129.54,259.16 19.78,259.16 19.78,56.46 		"/>
		<path class="st1" d="M105.39,56.46L88.88,22.53c0,0,79.8-16.82,175.49,3.67l-10.09,30.27H105.39z"/>
	</g>
	<path id="wit" class="st2" d="M276.9,128.48l-20.79,13.93l-9.78,6.55l-6.72-10.39h-0.01l-20.17-31.19l-24.38,25.16l-4.36,4.5
		l-5.97-6.08l-0.09-0.09v-0.01l-40.72-41.51l-41.06,88.16c-0.16,0.13-0.31,0.26-0.47,0.39l-47.6-74.15l-9.57,155.41h252.96
		L276.9,128.48z"/>
	<g id="ogen">
		<path class="st3" d="M60.14,91.32c-0.93-24.15,70.42-37.96,71.54-2.75c0.81,25.27-31.8,5.5-39.44,6.11s-13.76,0-19.26,4.89
			C67.48,104.46,60.45,99.27,60.14,91.32z"/>
		<path class="st4" d="M298.3,88.03c0.93-24.15-70.42-37.96-71.54-2.75c-0.81,25.27,31.8,5.5,39.44,6.11s13.76,0,19.26,4.89
			C290.96,101.18,297.99,95.98,298.3,88.03z"/>
		<circle class="st0" cx="94.84" cy="79.62" r="3.9"/>
		<circle class="st0" cx="262.52" cy="77.19" r="3.9"/>
	</g>
	<g id="soul">
		<polygon class="st0" points="256.11,141.63 237.3,259.16 298.3,259.16 294.61,236.45 264.37,234.4 280.46,149.57 276.9,127.7 		
			"/>
		<path class="st0" d="M184.72,130.96c-0.06-0.57-0.09-0.87-0.09-0.87l-40.72-41.52l-37.76,83.53c0.01,0.24,0.02,0.47,0.03,0.7
			c2.42,61.48,23.36,86.36,23.36,86.36h33.94C190.96,207.06,185.52,139.37,184.72,130.96z M145.92,240.21
			c-9.24,0-16.73-26.9-16.73-60.08s7.49-60.07,16.73-60.07s16.73,26.89,16.73,60.07S155.16,240.21,145.92,240.21z"/>
		<path class="st0" d="M256.3,141.51c0,0-17.92,113.07-26.79,117.65h-34.46c0,0-15.25-108.65-10.42-129.07l6.06,6.17l4.36-4.5
			c0,0,5.11,106.31,17.34,105.39c12.23-0.92,27.21-99.36,27.21-99.36h0.01l6.72,10.39L256.3,141.51z"/>
		<polygon class="st0" points="68.34,195.54 103.55,211 45.21,259.16 66.69,221.51 48.67,203.21 48.62,203.16 54.94,101.1 
			103.55,177.84 102.85,177.51 69.17,161.73 		"/>
	</g>
	<g id="extra_wit">
		<polygon class="st4" points="103.55,178.62 54.94,101.1 47.21,226.03 49.82,223.64 55.82,105.21 101.58,178.13 		"/>
		<polygon class="st4" points="102.78,178.53 104.6,178.83 144.14,90.32 190.4,138.24 190.69,136.26 143.91,88.57 		"/>
		<polygon class="st4" points="190.4,138.24 190.69,136.26 219.43,107.38 246.33,148.18 246.33,150.05 219.13,108.8 		"/>
		<polygon class="st4" points="246.33,150.05 246.33,148.18 276.9,127.7 281.02,153.01 279.81,153.01 276.29,129.42 		"/>
		<polygon class="st4" points="292.82,226.27 292.11,230.92 296.49,259.16 298.3,259.16 		"/>
	</g>
</g>
</svg>
