<?xml version="1.0" encoding="utf-8"?>
<!-- Generator: Adobe Illustrator 27.2.0, SVG Export Plug-In . SVG Version: 6.00 Build 0)  -->
<svg version="1.1" id="Layer_1" xmlns="http://www.w3.org/2000/svg" xmlns:xlink="http://www.w3.org/1999/xlink" x="0px" y="0px"
	 viewBox="0 0 1275.6 366" style="enable-background:new 0 0 1275.6 366;" xml:space="preserve">
<style type="text/css">
	.st0{fill:#D2001F;}
	.st1{fill:#FFFFFF;}
</style>
<rect y="0" class="st0" width="1274.2" height="366"/>
<g>
	<path class="st1" d="M70.2,306.4c-2.2,0-3.6-1.4-3.6-3.6V64.3c0-2.2,1.4-3.6,3.6-3.6H128c44.8,0,72.3,21.3,72.3,77.3
		c0,55.7-28.6,77.3-72.3,77.3h-11.9c-1.4,0-2.2,0.7-2.2,2.2v85.3c0,2.2-1.4,3.6-3.6,3.6H70.2z M152.9,138c0-27.8-8-35.8-26.4-35.8
		H116c-1.4,0-2.2,0.7-2.2,2.2v67.2c0,1.4,0.7,2.2,2.2,2.2h10.5C145,173.8,152.9,165.9,152.9,138z"/>
	<path class="st1" d="M225.1,268.1c-4-11.2-5.1-21.3-5.1-84.6c0-63.2,1.1-73.4,5.1-84.6c9-27.1,30.7-41.6,62.9-41.6
		s53.8,14.5,62.9,41.6c4,11.2,5.1,21.3,5.1,84.6c0,63.2-1.1,73.4-5.1,84.6c-9,27.1-30.7,41.6-62.9,41.6S234.1,295.2,225.1,268.1z
		 M305.3,255.1c1.8-5.8,2.5-11.9,2.5-71.6c0-59.6-0.7-65.8-2.5-71.6C303.1,105,297,100,288,100s-15.2,5.1-17.3,11.9
		c-1.8,5.8-2.5,11.9-2.5,71.6c0,59.6,0.7,65.8,2.5,71.6C272.9,262,279,267,288,267S303.1,262,305.3,255.1z"/>
	<path class="st1" d="M382,306.4c-2.2,0-3.6-1.4-3.6-3.6V64.3c0-2.2,1.4-3.6,3.6-3.6h57.8c44.8,0,72.3,21.3,72.3,77.3
		c0,55.7-28.6,77.3-72.3,77.3h-11.9c-1.4,0-2.2,0.7-2.2,2.2v85.3c0,2.2-1.4,3.6-3.6,3.6H382z M464.7,138c0-27.8-8-35.8-26.4-35.8
		h-10.5c-1.4,0-2.2,0.7-2.2,2.2v67.2c0,1.4,0.7,2.2,2.2,2.2h10.5C456.8,173.8,464.7,165.9,464.7,138z"/>
	<path class="st1" d="M576.8,64.3c0-2.2,1.4-3.6,3.6-3.6h39c3.3,0,5.1,1.1,5.8,3.6l37.6,129h1.4l36.1-129c0.7-2.5,2.5-3.6,5.8-3.6
		h38.7c2.2,0,3.6,1.4,3.6,3.6v238.5c0,2.2-1.4,3.6-3.6,3.6h-35c-2.2,0-3.6-1.4-3.6-3.6v-142H704l-26.7,98.3
		c-0.7,2.2-2.2,3.6-4.7,3.6h-19.9c-2.5,0-4-1.4-4.7-3.6l-26.7-98.3h-2.2v142c0,2.2-1.4,3.6-3.6,3.6h-35.1c-2.2,0-3.6-1.4-3.6-3.6
		V64.3z"/>
	<path class="st1" d="M819.8,64.3c0.7-2.2,1.8-3.6,4-3.6h42.6c2.2,0,3.6,1.4,4,3.6l52.8,238.5c0.4,2.2-0.7,3.6-2.9,3.6h-40.1
		c-2.5,0-3.6-1.4-4-3.6l-8-44.5h-46.6l-8.3,44.5c-0.4,2.2-1.4,3.6-4,3.6h-40.1c-2.2,0-3.3-1.4-2.9-3.6L819.8,64.3z M861.4,220.8
		l-15.5-85.3h-1.1l-16.3,85.3H861.4z"/>
	<path class="st1" d="M1035.1,306.4c-2.2,0-3.3-0.7-4-2.9l-27.8-93.2h-13.7c-1.4,0-2.2,0.7-2.2,2.2v90.4c0,2.2-1.4,3.6-3.6,3.6
		h-40.1c-2.2,0-3.6-1.4-3.6-3.6V64.3c0-2.2,1.4-3.6,3.6-3.6h58.5c43.7,0,71.9,20.6,71.9,75.2c0,31.1-10.5,51.3-27.5,62.9l33.6,104.1
		c0.7,1.8,0,3.6-1.8,3.6h-43.3V306.4L1035.1,306.4z M1026.5,135.9c0-25.7-8-33.6-26.4-33.6h-10.5c-1.4,0-2.2,0.7-2.2,2.2v62.9
		c0,1.4,0.7,2.2,2.2,2.2h10.5C1018.5,169.5,1026.5,161.9,1026.5,135.9z"/>
	<path class="st1" d="M1130.7,306.4c-2.2,0-3.6-1.4-3.6-3.6V105.5c0-1.4-0.7-2.2-2.2-2.2h-38.7c-2.2,0-3.6-1.4-3.6-3.6V64.3
		c0-2.2,1.4-3.6,3.6-3.6h129c2.2,0,3.6,1.4,3.6,3.6v35.4c0,2.2-1.4,3.6-3.6,3.6h-38.7c-1.4,0-2.2,0.7-2.2,2.2v197.3
		c0,2.2-1.4,3.6-3.6,3.6H1130.7z"/>
</g>
</svg>
